<mxfile host="app.diagrams.net" agent="Mozilla/5.0 (Windows NT 10.0; Win64; x64) AppleWebKit/537.36 (KHTML, like Gecko) Chrome/135.0.0.0 Safari/537.36 OPR/120.0.0.0" version="28.0.7">
  <diagram id="stock_mgmt" name="Processus Stock">
    <mxGraphModel dx="1522" dy="880" grid="0" gridSize="10" guides="1" tooltips="1" connect="1" arrows="1" fold="1" page="1" pageScale="1" pageWidth="827" pageHeight="1169" math="0" shadow="0">
      <root>
        <mxCell id="0" />
        <mxCell id="1" parent="0" />
        <mxCell id="BBDZRBBKg0oTXFT-bn2O-244" value="Déstocker" style="edgeStyle=orthogonalEdgeStyle;rounded=1;orthogonalLoop=1;jettySize=auto;html=1;exitX=0.5;exitY=1;exitDx=0;exitDy=0;entryX=0.5;entryY=0;entryDx=0;entryDy=0;curved=0;" parent="1" source="102" target="BBDZRBBKg0oTXFT-bn2O-243" edge="1">
          <mxGeometry relative="1" as="geometry" />
        </mxCell>
        <mxCell id="102" value="Choisir l&#39;action" style="rhombus;whiteSpace=wrap;html=1;perimeter=ellipsePerimeter;" parent="1" vertex="1">
          <mxGeometry x="269" y="156" width="80" height="80" as="geometry" />
        </mxCell>
        <mxCell id="104" value="séléctionner entité à créer(article, type , lot)" style="rounded=1;whiteSpace=wrap;html=1;" parent="1" vertex="1">
          <mxGeometry x="130" y="285" width="150" height="60" as="geometry" />
        </mxCell>
        <mxCell id="107" value="Enregistrer création" style="rounded=1;whiteSpace=wrap;html=1;" parent="1" vertex="1">
          <mxGeometry x="180" y="576" width="100" height="30" as="geometry" />
        </mxCell>
        <mxCell id="111" value="Sélectionner entité à modifier" style="rounded=1;whiteSpace=wrap;html=1;" parent="1" vertex="1">
          <mxGeometry x="532" y="281" width="110" height="30" as="geometry" />
        </mxCell>
        <mxCell id="112" value="Modifier champs (Qté, prix…)" style="rounded=1;whiteSpace=wrap;html=1;" parent="1" vertex="1">
          <mxGeometry x="532" y="351" width="120" height="60" as="geometry" />
        </mxCell>
        <mxCell id="113" value="Enregistrer modification" style="rounded=1;whiteSpace=wrap;html=1;" parent="1" vertex="1">
          <mxGeometry x="567" y="586" width="105" height="35" as="geometry" />
        </mxCell>
        <mxCell id="150" value="Mettre à jour&amp;nbsp;quantités / prix&amp;nbsp;&amp;nbsp;" style="rounded=1;whiteSpace=wrap;html=1;fillColor=#fff2cc;" parent="1" vertex="1">
          <mxGeometry x="706" y="750" width="91" height="60" as="geometry" />
        </mxCell>
        <mxCell id="201" style="edgeStyle=orthogonalEdgeStyle;endArrow=block;html=1;exitX=0.5;exitY=1;exitDx=0;exitDy=0;" parent="1" source="101" target="102" edge="1">
          <mxGeometry relative="1" as="geometry">
            <Array as="points">
              <mxPoint x="56" y="141" />
              <mxPoint x="355" y="141" />
            </Array>
          </mxGeometry>
        </mxCell>
        <mxCell id="202" style="edgeStyle=orthogonalEdgeStyle;endArrow=block;html=1;entryX=0.5;entryY=0;entryDx=0;entryDy=0;exitX=0;exitY=0.5;exitDx=0;exitDy=0;" parent="1" source="102" target="104" edge="1">
          <mxGeometry relative="1" as="geometry">
            <mxPoint x="34" y="256" as="targetPoint" />
            <mxPoint x="188" y="213" as="sourcePoint" />
          </mxGeometry>
        </mxCell>
        <mxCell id="203" value="[Créer]" style="edgeLabel;html=1;" parent="202" vertex="1">
          <mxGeometry x="-0.8" y="-0.8" relative="1" as="geometry">
            <mxPoint x="-41" y="-2" as="offset" />
          </mxGeometry>
        </mxCell>
        <mxCell id="204" style="edgeStyle=orthogonalEdgeStyle;endArrow=block;html=1;" parent="1" source="102" target="111" edge="1">
          <mxGeometry relative="1" as="geometry" />
        </mxCell>
        <mxCell id="205" value="[Modifier]" style="edgeLabel;html=1;" parent="204" vertex="1">
          <mxGeometry y="-0.8" relative="1" as="geometry">
            <mxPoint x="-156" y="-5" as="offset" />
          </mxGeometry>
        </mxCell>
        <mxCell id="217" style="edgeStyle=orthogonalEdgeStyle;endArrow=block;html=1;" parent="1" source="107" target="150" edge="1">
          <mxGeometry relative="1" as="geometry">
            <Array as="points">
              <mxPoint x="274" y="676" />
              <mxPoint x="358" y="676" />
            </Array>
          </mxGeometry>
        </mxCell>
        <mxCell id="218" style="edgeStyle=orthogonalEdgeStyle;endArrow=block;html=1;" parent="1" source="111" target="112" edge="1">
          <mxGeometry relative="1" as="geometry" />
        </mxCell>
        <mxCell id="219" style="edgeStyle=orthogonalEdgeStyle;endArrow=block;html=1;" parent="1" source="112" target="BBDZRBBKg0oTXFT-bn2O-227" edge="1">
          <mxGeometry relative="1" as="geometry" />
        </mxCell>
        <mxCell id="220" style="edgeStyle=orthogonalEdgeStyle;endArrow=block;html=1;" parent="1" source="113" target="150" edge="1">
          <mxGeometry relative="1" as="geometry">
            <Array as="points">
              <mxPoint x="664" y="680" />
              <mxPoint x="772" y="680" />
            </Array>
          </mxGeometry>
        </mxCell>
        <mxCell id="227" style="edgeStyle=orthogonalEdgeStyle;endArrow=block;html=1;entryX=0.25;entryY=0;entryDx=0;entryDy=0;" parent="1" source="150" target="aQw55JcySgMIox2EFHeR-232" edge="1">
          <mxGeometry relative="1" as="geometry">
            <Array as="points">
              <mxPoint x="752" y="821" />
            </Array>
          </mxGeometry>
        </mxCell>
        <mxCell id="BBDZRBBKg0oTXFT-bn2O-228" style="edgeStyle=orthogonalEdgeStyle;rounded=0;orthogonalLoop=1;jettySize=auto;html=1;exitX=0.5;exitY=1;exitDx=0;exitDy=0;entryX=0.5;entryY=0;entryDx=0;entryDy=0;" parent="1" source="BBDZRBBKg0oTXFT-bn2O-227" target="113" edge="1">
          <mxGeometry relative="1" as="geometry" />
        </mxCell>
        <mxCell id="BBDZRBBKg0oTXFT-bn2O-236" value="oui" style="edgeLabel;html=1;align=center;verticalAlign=middle;resizable=0;points=[];" parent="BBDZRBBKg0oTXFT-bn2O-228" vertex="1" connectable="0">
          <mxGeometry x="-0.328" y="-3" relative="1" as="geometry">
            <mxPoint as="offset" />
          </mxGeometry>
        </mxCell>
        <mxCell id="BBDZRBBKg0oTXFT-bn2O-240" style="edgeStyle=orthogonalEdgeStyle;rounded=0;orthogonalLoop=1;jettySize=auto;html=1;exitX=1;exitY=0.5;exitDx=0;exitDy=0;" parent="1" source="BBDZRBBKg0oTXFT-bn2O-227" target="102" edge="1">
          <mxGeometry relative="1" as="geometry">
            <mxPoint x="244" y="454.4000244140625" as="targetPoint" />
            <Array as="points">
              <mxPoint x="671" y="485" />
              <mxPoint x="671" y="163" />
            </Array>
          </mxGeometry>
        </mxCell>
        <mxCell id="BBDZRBBKg0oTXFT-bn2O-241" value="non" style="edgeLabel;html=1;align=center;verticalAlign=middle;resizable=0;points=[];" parent="BBDZRBBKg0oTXFT-bn2O-240" vertex="1" connectable="0">
          <mxGeometry x="-0.9296" y="-3" relative="1" as="geometry">
            <mxPoint x="-19" y="-12" as="offset" />
          </mxGeometry>
        </mxCell>
        <mxCell id="BBDZRBBKg0oTXFT-bn2O-227" value="Confirmer modification ?" style="rhombus;whiteSpace=wrap;html=1;perimeter=ellipsePerimeter;" parent="1" vertex="1">
          <mxGeometry x="539" y="445" width="110" height="80" as="geometry" />
        </mxCell>
        <mxCell id="BBDZRBBKg0oTXFT-bn2O-234" style="edgeStyle=orthogonalEdgeStyle;rounded=0;orthogonalLoop=1;jettySize=auto;html=1;exitX=0.5;exitY=1;exitDx=0;exitDy=0;" parent="1" source="BBDZRBBKg0oTXFT-bn2O-230" target="BBDZRBBKg0oTXFT-bn2O-233" edge="1">
          <mxGeometry relative="1" as="geometry">
            <Array as="points">
              <mxPoint x="184" y="405" />
              <mxPoint x="184" y="425" />
              <mxPoint x="210" y="425" />
            </Array>
          </mxGeometry>
        </mxCell>
        <mxCell id="BBDZRBBKg0oTXFT-bn2O-230" value="complèter champs (Qté, prix…)" style="rounded=1;whiteSpace=wrap;html=1;" parent="1" vertex="1">
          <mxGeometry x="130" y="365" width="120" height="40" as="geometry" />
        </mxCell>
        <mxCell id="BBDZRBBKg0oTXFT-bn2O-231" style="edgeStyle=orthogonalEdgeStyle;rounded=0;orthogonalLoop=1;jettySize=auto;html=1;exitX=0.5;exitY=1;exitDx=0;exitDy=0;entryX=0.425;entryY=0.003;entryDx=0;entryDy=0;entryPerimeter=0;" parent="1" source="104" target="BBDZRBBKg0oTXFT-bn2O-230" edge="1">
          <mxGeometry relative="1" as="geometry" />
        </mxCell>
        <mxCell id="BBDZRBBKg0oTXFT-bn2O-237" value="" style="edgeStyle=orthogonalEdgeStyle;rounded=0;orthogonalLoop=1;jettySize=auto;html=1;" parent="1" source="BBDZRBBKg0oTXFT-bn2O-233" target="107" edge="1">
          <mxGeometry relative="1" as="geometry" />
        </mxCell>
        <mxCell id="BBDZRBBKg0oTXFT-bn2O-238" value="oui" style="edgeLabel;html=1;align=center;verticalAlign=middle;resizable=0;points=[];" parent="BBDZRBBKg0oTXFT-bn2O-237" vertex="1" connectable="0">
          <mxGeometry x="0.256" relative="1" as="geometry">
            <mxPoint as="offset" />
          </mxGeometry>
        </mxCell>
        <mxCell id="BBDZRBBKg0oTXFT-bn2O-239" style="edgeStyle=orthogonalEdgeStyle;rounded=0;orthogonalLoop=1;jettySize=auto;html=1;exitX=0;exitY=0.5;exitDx=0;exitDy=0;" parent="1" source="BBDZRBBKg0oTXFT-bn2O-233" target="102" edge="1">
          <mxGeometry relative="1" as="geometry">
            <Array as="points">
              <mxPoint x="155" y="469" />
              <mxPoint x="115" y="469" />
              <mxPoint x="115" y="160" />
            </Array>
          </mxGeometry>
        </mxCell>
        <mxCell id="BBDZRBBKg0oTXFT-bn2O-242" value="non" style="edgeLabel;html=1;align=center;verticalAlign=middle;resizable=0;points=[];" parent="BBDZRBBKg0oTXFT-bn2O-239" vertex="1" connectable="0">
          <mxGeometry x="-0.8437" y="-1" relative="1" as="geometry">
            <mxPoint as="offset" />
          </mxGeometry>
        </mxCell>
        <mxCell id="BBDZRBBKg0oTXFT-bn2O-233" value="Confirmer&amp;nbsp;&lt;div&gt;création ?&lt;/div&gt;" style="rhombus;whiteSpace=wrap;html=1;perimeter=ellipsePerimeter;" parent="1" vertex="1">
          <mxGeometry x="155" y="445" width="110" height="80" as="geometry" />
        </mxCell>
        <mxCell id="BBDZRBBKg0oTXFT-bn2O-248" style="edgeStyle=orthogonalEdgeStyle;rounded=0;orthogonalLoop=1;jettySize=auto;html=1;exitX=0.5;exitY=1;exitDx=0;exitDy=0;entryX=0.5;entryY=0;entryDx=0;entryDy=0;" parent="1" source="BBDZRBBKg0oTXFT-bn2O-243" target="BBDZRBBKg0oTXFT-bn2O-246" edge="1">
          <mxGeometry relative="1" as="geometry" />
        </mxCell>
        <mxCell id="BBDZRBBKg0oTXFT-bn2O-243" value="Sélectionner lot à stocker" style="rounded=1;whiteSpace=wrap;html=1;" parent="1" vertex="1">
          <mxGeometry x="326" y="289" width="110" height="30" as="geometry" />
        </mxCell>
        <mxCell id="BBDZRBBKg0oTXFT-bn2O-245" value="dupliquer vers&amp;nbsp;" style="rounded=1;whiteSpace=wrap;html=1;" parent="1" vertex="1">
          <mxGeometry x="376" y="529" width="62" height="30" as="geometry" />
        </mxCell>
        <mxCell id="BBDZRBBKg0oTXFT-bn2O-249" style="edgeStyle=orthogonalEdgeStyle;rounded=0;orthogonalLoop=1;jettySize=auto;html=1;exitX=0.5;exitY=1;exitDx=0;exitDy=0;entryX=0.5;entryY=0;entryDx=0;entryDy=0;" parent="1" source="BBDZRBBKg0oTXFT-bn2O-246" target="BBDZRBBKg0oTXFT-bn2O-247" edge="1">
          <mxGeometry relative="1" as="geometry" />
        </mxCell>
        <mxCell id="BBDZRBBKg0oTXFT-bn2O-246" value="Sélectionner destination stockage" style="rounded=1;whiteSpace=wrap;html=1;" parent="1" vertex="1">
          <mxGeometry x="326" y="349" width="110" height="50" as="geometry" />
        </mxCell>
        <mxCell id="BBDZRBBKg0oTXFT-bn2O-250" value="nouveau lot" style="edgeStyle=orthogonalEdgeStyle;rounded=0;orthogonalLoop=1;jettySize=auto;html=1;exitX=0.5;exitY=1;exitDx=0;exitDy=0;" parent="1" source="BBDZRBBKg0oTXFT-bn2O-247" target="BBDZRBBKg0oTXFT-bn2O-245" edge="1">
          <mxGeometry x="0.2695" y="12" relative="1" as="geometry">
            <mxPoint as="offset" />
          </mxGeometry>
        </mxCell>
        <mxCell id="BBDZRBBKg0oTXFT-bn2O-253" style="edgeStyle=orthogonalEdgeStyle;rounded=0;orthogonalLoop=1;jettySize=auto;html=1;exitX=0;exitY=0.5;exitDx=0;exitDy=0;entryX=0.5;entryY=0;entryDx=0;entryDy=0;" parent="1" source="BBDZRBBKg0oTXFT-bn2O-247" target="BBDZRBBKg0oTXFT-bn2O-252" edge="1">
          <mxGeometry relative="1" as="geometry" />
        </mxCell>
        <mxCell id="BBDZRBBKg0oTXFT-bn2O-254" value="ancien lot" style="edgeLabel;html=1;align=center;verticalAlign=middle;resizable=0;points=[];" parent="BBDZRBBKg0oTXFT-bn2O-253" vertex="1" connectable="0">
          <mxGeometry x="-0.7391" y="-2" relative="1" as="geometry">
            <mxPoint x="-20" y="-8" as="offset" />
          </mxGeometry>
        </mxCell>
        <mxCell id="BBDZRBBKg0oTXFT-bn2O-259" style="edgeStyle=orthogonalEdgeStyle;rounded=0;orthogonalLoop=1;jettySize=auto;html=1;exitX=1;exitY=0.5;exitDx=0;exitDy=0;" parent="1" source="BBDZRBBKg0oTXFT-bn2O-247" target="150" edge="1">
          <mxGeometry relative="1" as="geometry">
            <Array as="points">
              <mxPoint x="466" y="449" />
              <mxPoint x="500" y="449" />
              <mxPoint x="500" y="723" />
              <mxPoint x="802" y="723" />
            </Array>
          </mxGeometry>
        </mxCell>
        <mxCell id="BBDZRBBKg0oTXFT-bn2O-260" value="déstockage&amp;nbsp;&lt;div&gt;vers terre&lt;/div&gt;" style="edgeLabel;html=1;align=center;verticalAlign=middle;resizable=0;points=[];" parent="BBDZRBBKg0oTXFT-bn2O-259" vertex="1" connectable="0">
          <mxGeometry x="-0.9071" y="3" relative="1" as="geometry">
            <mxPoint x="28" y="-14" as="offset" />
          </mxGeometry>
        </mxCell>
        <mxCell id="BBDZRBBKg0oTXFT-bn2O-247" value="destination?" style="rhombus;whiteSpace=wrap;html=1;perimeter=ellipsePerimeter;" parent="1" vertex="1">
          <mxGeometry x="346" y="419" width="76" height="64" as="geometry" />
        </mxCell>
        <mxCell id="BBDZRBBKg0oTXFT-bn2O-256" style="edgeStyle=orthogonalEdgeStyle;rounded=0;orthogonalLoop=1;jettySize=auto;html=1;exitX=0.5;exitY=1;exitDx=0;exitDy=0;entryX=0.5;entryY=0;entryDx=0;entryDy=0;" parent="1" source="BBDZRBBKg0oTXFT-bn2O-252" target="BBDZRBBKg0oTXFT-bn2O-255" edge="1">
          <mxGeometry relative="1" as="geometry" />
        </mxCell>
        <mxCell id="BBDZRBBKg0oTXFT-bn2O-252" value="sélectionner&lt;div&gt;&amp;nbsp; lot&lt;/div&gt;" style="rounded=1;whiteSpace=wrap;html=1;" parent="1" vertex="1">
          <mxGeometry x="290" y="529" width="76" height="30" as="geometry" />
        </mxCell>
        <mxCell id="BBDZRBBKg0oTXFT-bn2O-255" value="dupliquer vers&amp;nbsp;" style="rounded=1;whiteSpace=wrap;html=1;" parent="1" vertex="1">
          <mxGeometry x="295" y="579" width="71" height="30" as="geometry" />
        </mxCell>
        <mxCell id="BBDZRBBKg0oTXFT-bn2O-257" style="edgeStyle=orthogonalEdgeStyle;rounded=0;orthogonalLoop=1;jettySize=auto;html=1;exitX=0.5;exitY=1;exitDx=0;exitDy=0;" parent="1" source="BBDZRBBKg0oTXFT-bn2O-255" target="150" edge="1">
          <mxGeometry relative="1" as="geometry">
            <Array as="points">
              <mxPoint x="374" y="770" />
            </Array>
          </mxGeometry>
        </mxCell>
        <mxCell id="BBDZRBBKg0oTXFT-bn2O-258" style="edgeStyle=orthogonalEdgeStyle;rounded=0;orthogonalLoop=1;jettySize=auto;html=1;exitX=0.5;exitY=1;exitDx=0;exitDy=0;" parent="1" source="BBDZRBBKg0oTXFT-bn2O-245" target="150" edge="1">
          <mxGeometry relative="1" as="geometry">
            <Array as="points">
              <mxPoint x="451" y="576" />
              <mxPoint x="453" y="576" />
              <mxPoint x="453" y="758" />
            </Array>
          </mxGeometry>
        </mxCell>
        <mxCell id="aQw55JcySgMIox2EFHeR-227" value="sql lite" style="swimlane;whiteSpace=wrap;html=1;" vertex="1" parent="1">
          <mxGeometry x="693" y="6" width="118" height="927" as="geometry" />
        </mxCell>
        <mxCell id="aQw55JcySgMIox2EFHeR-228" value="responsable" style="swimlane;whiteSpace=wrap;html=1;" vertex="1" parent="1">
          <mxGeometry x="8" y="6" width="95" height="926" as="geometry" />
        </mxCell>
        <mxCell id="100" style="ellipse;shape=startState;fillColor=#000000;strokeColor=#000000;" parent="aQw55JcySgMIox2EFHeR-228" vertex="1">
          <mxGeometry x="4" y="26" width="30" height="30" as="geometry" />
        </mxCell>
        <mxCell id="101" value="ouvrir&amp;nbsp;&lt;div&gt;le&amp;nbsp;module stock&lt;/div&gt;" style="rounded=1;whiteSpace=wrap;html=1;" parent="aQw55JcySgMIox2EFHeR-228" vertex="1">
          <mxGeometry x="7.5" y="80.5" width="80" height="39" as="geometry" />
        </mxCell>
        <mxCell id="200" style="edgeStyle=orthogonalEdgeStyle;endArrow=block;html=1;" parent="aQw55JcySgMIox2EFHeR-228" source="100" target="101" edge="1">
          <mxGeometry relative="1" as="geometry">
            <mxPoint x="70" y="69" as="sourcePoint" />
          </mxGeometry>
        </mxCell>
        <mxCell id="aQw55JcySgMIox2EFHeR-231" value="Vertical Container" style="swimlane;whiteSpace=wrap;html=1;" vertex="1" parent="1">
          <mxGeometry x="103" y="6" width="589" height="926" as="geometry" />
        </mxCell>
        <mxCell id="aQw55JcySgMIox2EFHeR-235" style="edgeStyle=orthogonalEdgeStyle;rounded=0;orthogonalLoop=1;jettySize=auto;html=1;exitX=1;exitY=0.5;exitDx=0;exitDy=0;entryX=0;entryY=0.5;entryDx=0;entryDy=0;" edge="1" parent="aQw55JcySgMIox2EFHeR-231" source="aQw55JcySgMIox2EFHeR-232" target="160">
          <mxGeometry relative="1" as="geometry" />
        </mxCell>
        <mxCell id="aQw55JcySgMIox2EFHeR-232" value="message de confirmation" style="rounded=1;whiteSpace=wrap;html=1;fillColor=#fff2cc;" vertex="1" parent="aQw55JcySgMIox2EFHeR-231">
          <mxGeometry x="88" y="835" width="91" height="60" as="geometry" />
        </mxCell>
        <mxCell id="160" style="ellipse;shape=endState;fillColor=strokeColor;" parent="aQw55JcySgMIox2EFHeR-231" vertex="1">
          <mxGeometry x="266" y="862" width="30" height="30" as="geometry" />
        </mxCell>
      </root>
    </mxGraphModel>
  </diagram>
</mxfile>
